<?xml version="1.0" encoding="utf-8"?>
<!-- Generator: Adobe Illustrator 19.0.0, SVG Export Plug-In . SVG Version: 6.00 Build 0)  -->
<svg version="1.1" id="Capa_1" xmlns="http://www.w3.org/2000/svg" xmlns:xlink="http://www.w3.org/1999/xlink" x="0px" y="0px"
	 viewBox="-49 141 512 512" style="enable-background:new -49 141 512 512;" xml:space="preserve">
<style type="text/css">
	.st0{fill:#662382;}
</style>
<g>
	<g>
		<path class="st0" d="M359,422.7c-3.1-10.4-9.2-14-10.8-14.7c0.1-0.5,0.2-1,0.3-1.7c0.1-1,0.3-2,0.4-3.1c0.5-2.3,1.1-5.4,1.6-8.8
			c0-0.2,0.1-0.3,0.1-0.3s0,0,0,0.1c1.2-8.4,1.9-18.9-0.7-26.2c-4.8-13.8-19.1-14.8-19.7-14.8c0.6-3.2,0.7-5.6,0.5-7
			c0.3-5.4,0.4-13.4-0.6-22.6c-0.9-8.6-12.5-15.2-24.7-19.7c-21.7-5.5-39.5,9.9-39.5,9.9s21.1-30.9,29.9-46.6l0.5-0.4l-0.3,0.4
			l30.6-26.6l42.5-36.9L295.7,141l-4.9,34.5c-0.2,0.1-72.9-1.6-127.4,11.3c-64.8,15.4-118.8,35.9-118.5,37.4
			c0.2,1,62.5-13.3,136.9-12c34.1,0.6,65.9,6.4,86.9,11.4l-0.4,0.4c0,0,0.9,0.8,2,0c0,0,0.1,0,0.1,0c-4.3,5.4-8.3,10.7-11.7,15.5
			c-11.5,16.3-53.3,70-62.5,78.9c-13,12.5-15.7,20.8-26.8,41.6c-9.2,17.2-19.1,30-25.2,38c-3.3,4.3-6,9.7-6,9.7s-2.9-4.1-5.3-5.3
			c-2.7-1.4-9.9,0-9.9,0c0.8-3.9,3.9-1.7,6.4-10c2.4-8.1-2-11.2-1.4-14.6c-0.1,0.6,8.3-1.8,14.6-12.2c4.8-8,11.1-15.4,12.4-22.8
			c1.2-6.9,1.2-13.7,0.5-17c-2.3-11.6-7.5-16.3-14-16c-11.3,0.5-21.3,20.1-22.9,20.7c-1.6,0.5-5.6,4-5.6,4s-12,1.9-26,12.8
			c-4.4,3.4-8.4,21.9-13,38.7c-5.5,20.1-15.3,38.4-13.5,51.4c1.2,8.2,10.8,47.1,23.2,75c14.5,32.6,31.8,54.7,36.6,63.9
			c9,17.1,11.1,39.1,17.4,53.1c18.7,41.6,165.5,16.6,167.8,9.9c2.3-6.7,5.1-6.2,2.6-9.7c-1.8-2.5,0.7-5.3,2-13.9
			c0.5-3.3-1.3-9.8-0.5-13.9c2.3-11.2,35.2-74,49.9-108.1c4.9-11.3,4.6-20.2,4.7-22c0.4-7.3,0.2-0.8-1.2-11.2
			C362.2,455.5,362.6,434.6,359,422.7z M318.2,177.1c15,0.5,26.7,13.1,26.1,28.1c-0.3,7-3.2,13.2-7.7,17.9c-1,0.8-3.4,2.8-6,4.6
			c-2.4,1.4-5,2.4-7.7,2.9c5.3-7.1,8.4-10.4,11.6-19c2.3-6.3,3-10.4,1-14.1c-7-13.3-16.6-18.1-32.9-8.5c-2.4,1.4-6.9,5.7-12.1,11.4
			c0-0.3,0.1-0.7,0.1-1c0.2-0.8,0.5-1.9,0.7-3.1C294.9,184.9,305.7,176.6,318.2,177.1z M291.2,196.7c-0.2,1.1-0.5,2.1-0.5,2.1
			l-0.1,0.1C290.9,198.2,291,197.5,291.2,196.7z"/>
	</g>
</g>
</svg>
