<?xml version="1.0" encoding="iso-8859-1"?>
<!-- Generator: Adobe Illustrator 19.0.0, SVG Export Plug-In . SVG Version: 6.00 Build 0)  -->
<svg version="1.1" id="Capa_1" xmlns="http://www.w3.org/2000/svg" xmlns:xlink="http://www.w3.org/1999/xlink" x="0px" y="0px"
	 viewBox="0 0 452.986 452.986" style="enable-background:new 0 0 452.986 452.986;" xml:space="preserve">
<g>
	<g>
		<g>
			<path style="fill:#662382;" d="M403.913,0H49.074C22.11,0,0,22.11,0,49.117v354.796c0,26.963,22.11,49.074,49.074,49.074H403.87
				c27.05,0,49.117-22.11,49.117-49.074V49.117C452.986,22.11,430.919,0,403.913,0z M415.82,410.859h-0.043H37.188V101.836H415.82
				V410.859z"/>
			<path style="fill:#662382;" d="M190.082,281.973l-23.987,109.968l60.377-42.538l60.355,42.538l-21.528-111.305
				c26.467-14.043,44.738-41.588,44.738-73.578c0-46.032-37.533-83.544-83.63-83.544c-46.032,0.022-83.479,37.512-83.479,83.544
				C142.928,240.061,162.277,268.384,190.082,281.973z M226.407,146.768c33.305,0,60.42,27.05,60.42,60.29
				c0,33.284-27.114,60.333-60.42,60.333c-33.262,0-60.247-27.05-60.247-60.333C166.16,173.817,193.145,146.768,226.407,146.768z"/>
		</g>
	</g>
	<g>
	</g>
	<g>
	</g>
	<g>
	</g>
	<g>
	</g>
	<g>
	</g>
	<g>
	</g>
	<g>
	</g>
	<g>
	</g>
	<g>
	</g>
	<g>
	</g>
	<g>
	</g>
	<g>
	</g>
	<g>
	</g>
	<g>
	</g>
	<g>
	</g>
</g>
<g>
</g>
<g>
</g>
<g>
</g>
<g>
</g>
<g>
</g>
<g>
</g>
<g>
</g>
<g>
</g>
<g>
</g>
<g>
</g>
<g>
</g>
<g>
</g>
<g>
</g>
<g>
</g>
<g>
</g>
</svg>
