<?xml version="1.0" encoding="iso-8859-1"?>
<!-- Generator: Adobe Illustrator 16.0.0, SVG Export Plug-In . SVG Version: 6.00 Build 0)  -->
<!DOCTYPE svg PUBLIC "-//W3C//DTD SVG 1.1//EN" "http://www.w3.org/Graphics/SVG/1.1/DTD/svg11.dtd">
<svg version="1.1" id="Capa_1" xmlns="http://www.w3.org/2000/svg" xmlns:xlink="http://www.w3.org/1999/xlink" x="0px" y="0px"
	 width="79.536px" height="79.536px" viewBox="0 0 79.536 79.536" style="enable-background:new 0 0 79.536 79.536;"
	 xml:space="preserve">
<g>
	<path style="fill:#662382;" d="M55.313,48.99c-1.735,0-3.139,1.403-3.139,3.128c0,1.714,1.403,3.122,3.139,3.122
		c1.719,0,3.122-1.408,3.122-3.122C58.436,50.394,57.032,48.99,55.313,48.99z M10.344,48.99c-1.729,0-3.136,1.403-3.136,3.128
		c0,1.714,1.406,3.122,3.136,3.122c1.722,0,3.127-1.408,3.127-3.122C13.471,50.394,12.065,48.99,10.344,48.99z M45.992,43.3
		c-2.558,0-4.647,2.092-4.647,4.649c0,2.568,2.09,4.66,4.647,4.66c2.579,0,4.671-2.092,4.671-4.66
		C50.663,45.392,48.571,43.3,45.992,43.3z M60.444,71.603h-5.297v-9.76c0-1.673-0.492-3.236-1.289-4.594
		c0.471-0.135,0.947-0.238,1.455-0.238c2.827,0,5.131,2.32,5.131,5.147V71.603z M19.644,43.3c-2.561,0-4.65,2.092-4.65,4.649
		c0,2.568,2.089,4.66,4.65,4.66s4.655-2.092,4.655-4.66C24.299,45.392,22.204,43.3,19.644,43.3z M10.344,57.011
		c0.507,0,0.979,0.104,1.447,0.238c-0.803,1.357-1.29,2.921-1.29,4.594v9.76H5.199v-9.444C5.199,59.32,7.517,57.011,10.344,57.011z
		 M32.819,33.994c-3.791,0-6.877,3.092-6.877,6.877c0,3.801,3.086,6.887,6.877,6.887c3.79,0,6.887-3.086,6.887-6.887
		C39.706,37.086,36.609,33.994,32.819,33.994z M53.438,75.238h-8.13V60.388c0-2.057-0.538-3.957-1.408-5.645
		c0.663-0.202,1.367-0.342,2.092-0.342c4.102,0,7.446,3.335,7.446,7.441V75.238L53.438,75.238z M20.327,60.388v14.851h-8.125V61.848
		c0-4.102,3.337-7.441,7.436-7.441c0.735,0,1.432,0.14,2.095,0.342C20.863,56.441,20.327,58.337,20.327,60.388z M22.028,79.536
		H43.61V60.388c0-5.955-4.842-10.792-10.791-10.792c-5.96,0-10.792,4.837-10.792,10.792V79.536z M42.052,38.883V28.596h-2.78
		c-4.332,0-7.858-3.526-7.858-7.863V7.853C31.408,3.521,34.935,0,39.271,0h27.206c4.334,0,7.859,3.521,7.859,7.853v12.875
		c0,4.336-3.525,7.863-7.859,7.863H52.351L42.052,38.883z M39.271,2.812c-2.773,0-5.036,2.263-5.036,5.041v12.875
		c0,2.783,2.263,5.046,5.036,5.046h5.603v6.304l6.307-6.304h15.297c2.775,0,5.038-2.263,5.038-5.046V7.853
		c0-2.778-2.263-5.041-5.038-5.041H39.271z"/>
</g>
<g>
</g>
<g>
</g>
<g>
</g>
<g>
</g>
<g>
</g>
<g>
</g>
<g>
</g>
<g>
</g>
<g>
</g>
<g>
</g>
<g>
</g>
<g>
</g>
<g>
</g>
<g>
</g>
<g>
</g>
</svg>
