<?xml version="1.0" encoding="iso-8859-1"?>
<!-- Generator: Adobe Illustrator 19.0.0, SVG Export Plug-In . SVG Version: 6.00 Build 0)  -->
<svg xmlns="http://www.w3.org/2000/svg" xmlns:xlink="http://www.w3.org/1999/xlink" version="1.1" id="Capa_1" x="0px" y="0px" viewBox="0 0 57.544 57.544" style="enable-background:new 0 0 57.544 57.544;" xml:space="preserve" width="512px" height="512px">
<g>
	<g>
		<path d="M48.478,33.512c1.223-0.088,3.042-1.02,3.042-3.226c0-2.685-2.137-3.703-2.228-3.745    c-0.124-0.058-0.259-0.089-0.396-0.093l-1.537-0.037C47.74,25.869,48,25.186,48,24.368c0-1.956-1.838-3.049-2.923-3.386    c-0.087-0.027-0.177-0.042-0.268-0.045L27.56,20.441c1.548-0.828,3.02-2,3.471-2.884c0.527-1.032,0.171-2.784-0.779-3.824    c-0.879-0.963-2.129-1.216-3.43-0.693c-1.033,0.416-2.248,0.668-3.654,0.961c-1.794,0.372-4.027,0.837-6.751,1.824    c-4.375,1.585-8.995,6.534-10.224,7.914H5.908C2.65,23.738,0,26.392,0,29.653v6.477c0,3.261,2.653,5.914,5.915,5.914h0.944    c2.28,1.664,6.387,2.657,6.567,2.7c0.076,0.019,0.154,0.027,0.232,0.027h13.664c2.283,0,3.817-1.498,3.817-3.727    c0-0.807-0.378-1.417-0.927-1.879c0.172-0.015,0.321-0.022,0.44-0.022c2.513,0,4.136-1.389,4.136-3.537    c0-0.643-0.12-1.183-0.313-1.632L48.478,33.512z M29.349,34.143c0.008,0,0.016,0,0.024,0l2.595-0.063    c0.258,0.107,0.821,0.463,0.821,1.525c0,1.271-1.161,1.537-2.136,1.537c-1.211,0-4.338,0.58-4.69,0.646    c-0.489,0.091-0.836,0.528-0.815,1.025s0.405,0.903,0.9,0.952c1.392,0.138,3.092,0.755,3.092,1.277    c0,1.428-0.988,1.728-1.817,1.728H13.779c-1.255-0.312-4.459-1.285-5.947-2.502c-0.179-0.146-0.402-0.226-0.633-0.226H5.915    C3.756,40.044,2,38.288,2,36.13v-6.477c0-2.159,1.753-3.915,3.908-3.915h0.738c0.293,0,0.571-0.129,0.761-0.352    c0.052-0.06,5.197-6.054,9.691-7.682c2.589-0.94,4.654-1.369,6.477-1.747c1.5-0.311,2.795-0.581,3.993-1.063    c0.644-0.26,0.962-0.059,1.167,0.146c0.498,0.498,0.603,1.387,0.515,1.607c-0.344,0.674-2.668,2.313-4.349,2.736    c-0.683,0.173-1.331,0.26-1.903,0.337c-1.093,0.146-1.955,0.262-2.476,0.917c-0.236,0.296-0.284,0.7-0.125,1.044    c0.16,0.343,0.5,0.566,0.878,0.578l23.315,0.673c0.35,0.14,1.41,0.629,1.41,1.436c0,1.148-1.093,1.516-1.05,1.519    c-0.476,0-15.067,0.094-15.067,0.094c-0.546,0.004-0.988,0.444-0.993,0.991c-0.005,0.546,0.43,0.995,0.976,1.009l18.728,0.461    c0.305,0.205,0.926,0.757,0.926,1.845c0,1.01-0.837,1.198-1.147,1.229l-19.057,0.628c-0.55,0.018-0.982,0.478-0.967,1.027    C28.364,33.713,28.809,34.143,29.349,34.143z" fill="#ffb400"/>
		<path d="M56.886,16.121l-5.639-2.053c-0.248-0.089-0.523-0.078-0.765,0.033c-0.24,0.112-0.426,0.315-0.517,0.564l-2.052,5.639    c-0.189,0.519,0.078,1.093,0.598,1.281c0.112,0.041,0.229,0.06,0.342,0.06c0.408,0,0.792-0.252,0.939-0.658l1.272-3.495    C52.298,20.408,53,24.283,53,28.33c0,5.15-1.103,9.859-2.953,12.805l-1.271-3.491c-0.188-0.52-0.765-0.786-1.281-0.598    c-0.52,0.188-0.787,0.763-0.598,1.281l2.052,5.639c0.091,0.249,0.276,0.452,0.517,0.565c0.134,0.063,0.278,0.094,0.423,0.094    c0.115,0,0.231-0.021,0.342-0.061l5.639-2.053c0.52-0.188,0.787-0.763,0.598-1.281c-0.188-0.519-0.764-0.787-1.281-0.598    l-3.199,1.164C53.881,38.522,55,33.611,55,28.33c0-4.253-0.74-8.363-2.046-11.512L56.202,18c0.518,0.19,1.093-0.079,1.281-0.598    C57.673,16.884,57.405,16.31,56.886,16.121z" fill="#ffb400"/>
	</g>
</g>
<g>
</g>
<g>
</g>
<g>
</g>
<g>
</g>
<g>
</g>
<g>
</g>
<g>
</g>
<g>
</g>
<g>
</g>
<g>
</g>
<g>
</g>
<g>
</g>
<g>
</g>
<g>
</g>
<g>
</g>
</svg>
