<?xml version='1.0' encoding='iso-8859-1'?>
<!DOCTYPE svg PUBLIC '-//W3C//DTD SVG 1.1//EN' 'http://www.w3.org/Graphics/SVG/1.1/DTD/svg11.dtd'>
<svg version="1.1" xmlns="http://www.w3.org/2000/svg" viewBox="0 0 297 297" xmlns:xlink="http://www.w3.org/1999/xlink" enable-background="new 0 0 297 297">
	<defs>
	 	<style>
			g{
			fill:#662382;
			}
	 	</style>
	 </defs>
  <g>
    <path d="m294.321,129.816l-140.256-126.371c-3.079-2.773-7.757-2.775-10.838-0.006l-140.543,126.371c-2.494,2.244-3.348,5.791-2.148,8.924 1.202,3.133 4.208,5.201 7.564,5.201h23.944l111.126-98.928c3.098-2.838 7.85-2.84 10.947-7.10543e-15l111.117,98.928h23.664c3.354,0 6.36-2.066 7.563-5.197 1.202-3.131 0.352-6.678-2.14-8.922z"/>
    <path d="m156.77,202.589c5.058,0 9.171-4.189 9.171-9.34 0-5.152-4.113-9.342-9.171-9.342v18.682z"/>
    <path d="m105.634,193.25c0,21.314 15.582,39.051 35.95,42.441v-84.885c-20.368,3.391-35.95,21.127-35.95,42.444z"/>
    <path d="m156.77,124.166c3.915,0 7.089,3.174 7.089,7.09v6.383l3.218-3.231c2.765-2.771 7.252-2.779 10.024-0.018 2.773,2.764 2.781,7.252 0.018,10.025l-13.26,13.309v13.119c1.279,0.412 2.511,0.934 3.684,1.551l14.864-14.916c2.762-2.773 7.25-2.781 10.023-0.016 2.773,2.762 2.781,7.25 0.018,10.023l-14.936,14.988c0.604,1.176 1.118,2.406 1.52,3.688h13.115l13.25-13.301c2.763-2.771 7.251-2.781 10.023-0.018 2.773,2.762 2.782,7.25 0.019,10.023l-3.28,3.295h6.392c3.915,0 7.088,3.172 7.088,7.088 0,3.914-3.173,7.088-7.088,7.088h-6.391l3.279,3.291c2.764,2.773 2.755,7.262-0.019,10.025-1.382,1.377-3.192,2.066-5.003,2.066-1.818,0-3.636-0.695-5.021-2.086l-13.25-13.297h-13.115c-0.402,1.279-0.915,2.51-1.52,3.686l14.936,14.988c2.764,2.774 2.756,7.26-0.018,10.024-1.383,1.379-3.193,2.068-5.003,2.068-1.818,0-3.637-0.695-5.021-2.086l-14.864-14.916c-1.173,0.619-2.404,1.141-3.684,1.553v13.121l13.26,13.311c2.764,2.773 2.756,7.262-0.018,10.023-1.383,1.379-3.192,2.068-5.003,2.068-1.818,0-3.636-0.695-5.021-2.086l-3.218-3.23v6.385c0,3.916-3.174,7.09-7.089,7.09-0.344,0-0.679,0.047-1.011,0v33.301h91.346c4.474,0 8.101-3.627 8.101-8.1v-130.815l-99.444-88.425v55.871h1.01z"/>
    <path d="m42.077,287.537c0,4.473 3.627,8.1 8.101,8.1h91.406v-45.625c-3.201-0.4-6.323-1.059-9.34-1.965l-9.026,21.373c-1.142,2.705-3.77,4.332-6.532,4.332-0.92,0-1.854-0.18-2.755-0.561-3.607-1.521-5.295-5.68-3.772-9.287l9.119-21.592c-2.092-1.258-4.089-2.652-5.996-4.158l-6.011,6.012c-1.385,1.385-3.199,2.076-5.013,2.076s-3.627-0.691-5.012-2.076c-2.769-2.768-2.769-7.256-0.001-10.023l6.073-6.074c-1.595-2.07-3.046-4.254-4.35-6.533l-21.623,12.002c-1.09,0.605-2.271,0.891-3.435,0.891-2.492,0-4.908-1.314-6.203-3.648-1.9-3.424-0.665-7.738 2.757-9.637l23.032-12.783c-0.714-2.605-1.245-5.283-1.586-8.021h-10.072c-3.915,0-7.088-3.174-7.088-7.088 0-3.916 3.173-7.088 7.088-7.088h10.074c0.341-2.738 0.872-5.418 1.586-8.021l-23.032-12.783c-3.422-1.9-4.657-6.215-2.757-9.639 1.898-3.424 6.215-4.658 9.638-2.756l21.623,12.002c1.304-2.281 2.755-4.465 4.35-6.535l-6.073-6.074c-2.768-2.768-2.768-7.256 0.001-10.023 2.77-2.768 7.258-2.768 10.024,0.002l6.012,6.012c2.061-1.629 4.233-3.119 6.51-4.457l-9.634-22.813c-1.523-3.607 0.165-7.766 3.772-9.287 3.607-1.525 7.766,0.166 9.287,3.771l9.599,22.729c2.839-0.818 5.77-1.422 8.768-1.799v-68.247l-99.509,88.474v130.817z"/>
  </g>
</svg>
