<?xml version="1.0" encoding="utf-8"?>
<!-- Generator: Adobe Illustrator 19.0.0, SVG Export Plug-In . SVG Version: 6.00 Build 0)  -->
<svg version="1.1" id="map" xmlns="http://www.w3.org/2000/svg" xmlns:xlink="http://www.w3.org/1999/xlink" x="0px" y="0px"
	 viewBox="0 0 612 792" style="enable-background:new 0 0 612 792;" xml:space="preserve">
<style type="text/css">
	.st0{fill:#B7C4DF;}
	.st1{fill:#AFBEDA;}
	.st2{fill:#D2691E;}
	.st3{font-family:'MyriadPro-Regular';}
	.st4{font-size:7px;}
	.st5{display:none;}
	.st6{display:inline;fill:#D2691E;}
	.st7{enable-background:new    ;}
	.st8{font-family:'ArialHebrew-Light';}
	.st9{fill:#F0FFFF;}
	.st10{fill:#662382;}
</style>
<path vector-effect="non-scaling-stroke" d="M258.3,221.1l6.4-5.6l1.2-0.6l-5.2,4.6L258.3,221.1 M290.9,188.7l-4.5,0.8l-2.9,1.4
	l-1.5-0.2l-1.1,1.4l0.9,2.3l-2.7,4.1l-0.8,2l-3.8,5.8l-2.9,2.6l-2.6,3.3l-2.9,2.4v-2.3l-1,2.4l-2.4-1.2l-1,2.5l-0.8-1l0.2,2.5
	l-0.8-0.9l-2.2,0.4l1.3,2.2l-3.1,1.8l-1-2.8l0.4-2.8l-1.1-1.6l-1.1,4.4l-0.5,4.3h2.4l-2.2,2.4l1,1.5l1.9-1l0.4,5.1l-1.2,3.2
	l-1.2,0.2l0.4-1.8l-0.4-2.4l-1.8-1.7l-5.7-1.9l-2.2,0.6l-1.3,1.1l-4.9,2l-0.9,1.3l-3.2-1.6l-0.4,3l-4.7-0.8l-5.6-2.8l-1.2-3.9
	l-1.5-0.8l1.7-1.9l4.8,0.9l1.4-2.5l-1.3-2.6l2.1-1.8l0.4-1.4l2.2-0.4l0.1-1.2l1.6-0.8l0-3.3l0.7-0.7l4.7-1.1l-0.1-3.4l1.7-2.5
	l-1.7-2.6l0.4-1.5l-0.4-3.3l0.7-1.6l5.1-2.5l0.9,1.2l-0.4,4.8l2-1.2l0.9-2.3l0.9,1.8l2.3-2.2l0.4,2l1.4,0.5l1.2,1.7l2.8-3.4l2.9,4.4
	l1.7-1l3.7,0.1l1.2-1.6l-1.2,0l-1.8-2.6l-1.8-0.8l-0.4-1.1l1.2-0.8l-0.4-1.4l0.6-4.1l-0.4-2.2l-1.8-1.6l-2-0.2l-1.3-1.6l-3-1.5
	l1.2-3.3l-1.1-1.5l-0.9,0.8l-0.6-1.7l1.6-1.3l0-2.5l0.9-1.6l-0.5-1.3l-1.7-0.5l-1.7,1.8l-1-2.5l-1.3-0.9l-1.4-2.3l-1.6,0.1l-0.9-3.1
	l1.6-2.5l0.5-3.4l1-1.2l-1.3-1.2l1.4-2.6l-1.1-0.5l-1.2-3.1l-1.4,0.1l-1,1.2l-1.5-0.2l-1.8-2.2l4.2-2.5l0-1.5l1.4-0.4l3.1,2.1l2,0
	l2.2-0.8l1.3,0.7l4,0.2l-0.2-2.5l2.5-1l2.5,0.7l0.8-1.2l1.6,0.1l1.8,2.6l4.6,0.4l0.5,1.1l-2.1,0.9l-0.2,2.5l1.7,1.8l0.4,3.6l1.6,1.5
	l0.4,4.8l1.2,0.9l2.5-0.4l1.7,0.4l0.6,1.3l2-1.4l0.2,1.6l1.7,1.4l-0.9,3.7l1.7,5.1l2.8,0.9l2.5-0.7l0.5,1.1l-1.3,1.9l2.4,0.6
	l1.8,2.2l-1,3.3l-1.1,0.9l-4,0.6l0.4,1.9l2.4,2.4L290.9,188.7 M266.6,196.4l-0.2,2.3l1.5,1.8l2.5,1l1.4,1.7l1.2,2.8l1.8-1.6
	l-1.8-1.8l-0.4-2.4l-1.3-0.8l-0.6-2.8l-0.4,2.1l-1.9-2.9L266.6,196.4z"/>
<path vector-effect="non-scaling-stroke" d="M323.8,207.9l3.3,0.5l4.5-0.3l1.4,1.4L323.8,207.9 M312.7,204.6l-9.5-2.3l-2.7-1.3
	l10.3,2.7L312.7,204.6 M384.1,200.7l-2.6,4.2l-3.7,1.9l0.9-2.3l3.5-1.4l1.4-2.6l0,0L384.1,200.7 M380.1,199.5l-1.7,1.4l-2.2,0.6
	l-0.7-0.7l-2.1,3l0.4,2.9l1.3,5l3.1,6.4l-0.6,0.4l-2.2-4.4l-1.6,1.4l0.7-3.3l-0.6-0.4l-0.7-3.4l-0.9,0.6l-2.2-2.5l2-0.7l0.5-1.2
	l-1.7-1.2l-1.8,0.7l0.4,2.6l-1.3,2.9l-2.1,1l-1.7-1.2l0.8-3.4l1.7-0.7l0.7,1.4l0.4-2.5l-0.7-0.9l-1.3,1.4l-4-2.2l0.2,3.3l-1.9-4
	l-1.3-1.4l-0.8,1.5l1.3,1.7l-0.9,1l-0.9-1.8l-1,0.9l1.4,2l-2.3-0.4l-1.3-2.1l-2-1l-3.2-0.4l-2,1l0.1,1.4l-1,1.6l-0.8-1l-1.4,1.1
	l0.6,1.1l-0.9,1.4l-2.1-0.2l-1.5-1.7l-1.6,0.3l0.1-1.3l-1.8,0.3l0.5-3.1l-1.4,2.3l-1.2,0.6l-2.3-1.1l-0.1,1.4l-2.4,0.4l-2.8-0.7
	l-4.6,1l-2,0.9l-5.5-1.8l0.2-2.5l-3.5-0.4l-1.5-1.7l-0.7,0.3l-3-2.1l-0.1,1.3l-2.5-0.8l1-1.5l3.4,0l2.2-1.4l-1.2-1.8l-4.3-1.2l0,0
	l0.8-1.3l4.1,0.6l1.8-0.2l3.7,1.4l2,0.1l1.1-1.7l2.6-2.5l1.1-0.1l1.7-1.7l-5.4,2.6l-1.7,0.2l-1.9-1.4l-2.4,1.4l-0.7-1.6l-2.1-0.8
	l-1.3-3.1l2.5-0.8l2.2,0l1.2-1.9l3.1,0.1l0.7-1.2l3.3,0l0.1-1l3.1,0.8l0.6,0.7h2.7l2.7-1.2l-3-0.4l4.7-2.1l-1.4-0.5l0.5-1.4l1.1,1
	l0.8-1.5l-3.1-2l-0.2-0.9l1.4-2.7l1.6,0.1l2-1.6l-0.7-1.4l0.4-1.8l-0.6-1.8l-1.6-0.9l0.9-1.3l1.3,1.1l-0.2-3.8l-0.6-1.7l4.6,1.6
	l0.9,1.3l3.2-1.2l1.9-1.5l0.5,2l1.6,0.9l5.5-1l3.5,1.1l3.3,0l2.2,6.8l2.1-0.1l0.8-1.3l1.5-0.2l-0.4,1.6l0.9,5.1l0.7,0.4l0.7,3.1
	l0.9,1.3l2.6,1.2l1.8,3.2l-2.4,3.6l-1.3,1l2.4,1l-0.2,2l0.9,1.7l2.2,0.3l0,1.4l1.6,0l2.6,1.4l0.7,4.9L380.1,199.5z"/>
<path vector-effect="non-scaling-stroke" d="M222.3,25l0.9,0.9l1.6-1.4l0.7-3l0.9-0.4l1.6,1.7l2.7,0.5l3-2.9l1.9,2.7l0.6,1.7l3-1.3
	l2.3,0.7l0.4,3l1.4,0.8l0.4,1.4l0.7-2.7l2.4-2.4l1.9,0l1.9-2l1.7,0.1l1.9,3.6l-0.2,1.7l1.4,3.1l1.2,0l0.8,0.8l-0.3,1.8l-2.5,1.9
	l0.7,4l0.8-0.9L259,41l-0.6,3.4l-1.3-0.4l2.1,4.1l-0.5,2.3l1.7,0.7l0.4,2l-2.6,3.8l0.7,0.9l-0.4,2.2l-1.2,2.9l1.8-0.3l0.9,1.1
	l0.6,2.4l1.7,2.1l-0.1,2.7l0.8,1.8l-1.4,1l0,2.7l1.1,2.1l-2.3,2.6l-4.2,2.2l-0.5,2.7l1.3,0.1l-0.8,1.8l-3.9,2l-5.7-0.4l-0.8-3.4
	l1.1-1.3l-1.2-2l-0.5-2.8l-1.6-0.4l-2.8,2.7l-3,0.1l-3-0.9l-0.9,0.9l-2.6-0.5l-5.2,0.6l-3.4-0.2l-4.3-1.6l-1.3-3.4l-1-0.6l0.9-1
	l-0.5-2l2.5-0.7l-0.8-1.6l0.7-2.9l-0.6-2.7l-2.6,0.7l-1.6-2.6l-3.4-3.5l1.8-2.6l-2.2-2.3l1-1.3l-0.8-1.2l2-3.8l-0.8-2L212,44
	l-0.6-3.4l2.1-1.6l1.6-3.1l2.1-2.7l-0.4-2.6l1.2-0.2l0.8-4.1l1.6,1.7l0.3-2.6L222.3,25z"/>
<path vector-effect="non-scaling-stroke" d="M312.4,70.1l-1.4-0.4l-0.2,2.3l-1.7,1l-1.4,1.7l0.5,2.1l-1.5,1v1.2l-2.2,3.7l-2.9-0.6
	l-2,0.2l-0.9-1.7l-2,0.3l-2.7,1.3l-0.7,1.2l0.3,2.2l-0.6,2.8l-1,1.7l0.5,2l-1.7,2.1l-2.9,2.6L287,99l-0.8-0.5l-3,1.2l-2.4-1.3
	l-0.7,0.9l-2,0.1l-1.4-0.7l-0.9,3.5l-0.9-0.7l-3.8-0.9l-0.5-1.6l-0.8,1.7l-1.6-0.4l-2.6,1.2l-1.2,2.2l-2,0.2l-1.7-1.9l-1-0.6
	l-1.2-2.1l-1.2-0.4l-0.6-1.6l1.4-1.5l-0.3-2.7l0.5-1.3l-1.3-1.3l0.5-2l-1.4-0.7l0.8-1.8l-1.3-0.1l0.5-2.7l4.2-2.2l2.3-2.6l-1.1-2.1
	l0-2.7l1.4-1l-0.8-1.8l0.1-2.7l-1.7-2.1l-0.6-2.4l-0.9-1.1l-1.8,0.3l1.2-2.9l0.4-2.2l-0.7-0.9l2.6-3.8l-0.4-2l-1.7-0.7l0.5-2.3
	l-2.1-4.1l1.3,0.4L259,41l-2.7-2.5l-0.8,0.9l-0.7-4l2.5-1.9l0.3-1.8l-0.8-0.8l2.4-0.1l0.9-1.7l2.4-1.5l1.7,0.1l0.7,1.5l2.2,0.3
	l3.4-1.5l2.9,0l1.2,0.7l2.5,2.6l0.4,2.8l4.1,2.2l-0.8,0.5l0.3,1.7l-0.6,4.1l0.3,1.3l2.1,0.3l0.8,1.2l-0.3,2.4l2.6,1.7l-1,2.7
	l2.2,0.8l5-0.9l1.5,1.8l1.3,2.7l-0.9,1.5l1.6,1l0.3,1.2l3.9,0.8l3.3-0.5l2.7-1.1l1-1.9l1.1-0.4l2.4,2.5l1.3,0.1l0.2,1.4l-1.2,0.8
	l0.8,1.7l1.5,0.6l-0.3,0.9l1.5,1.1l-1,2.1L312.4,70.1 M286.8,58.2l-0.1-1.8l-2-1l-0.5,1.4l-1.6,1.6l-2-0.3l-0.1,1l-1.5-1.6l-0.8-2.2
	l-2.1-0.1l-1.4,0.9l-0.3,2.2l-0.9,0.8l-0.9,5.1l1.2-0.9l1.7,0.3l0.3,1.3l1.6,2.2l1.2,3.5l0.9,0.3l0.4,3.1l0.8,2.8l1.3-0.6l-0.5-2.9
	l0.7-1.1l-0.9-3.7l2.4,0.3l0.2-1.6l1.4,0.6v-1.3l1.2-0.7l-1.7-2.9l-0.1-2.2L286.8,58.2z"/>
<path vector-effect="non-scaling-stroke" d="M286.8,58.2l-2,2.5l0.1,2.2l1.7,2.9l-1.2,0.7v1.3l-1.4-0.6l-0.2,1.6l-2.4-0.3l0.9,3.7
	l-0.7,1.1l0.5,2.9l-1.3,0.6l-0.8-2.8l-0.4-3.1l-0.9-0.3l-1.2-3.5l-1.6-2.2l-0.3-1.3l-1.7-0.3l-1.2,0.9l0.9-5.1l0.9-0.8l0.3-2.2
	l1.4-0.9l2.1,0.1l0.8,2.2l1.5,1.6l0.1-1l2,0.3l1.6-1.6l0.5-1.4l2,1L286.8,58.2z"/>
<path vector-effect="non-scaling-stroke" d="M340.2,0.8l1.6-0.5l1,2.3l3.1-2.2l2.4,0l3.1,4.2l2,1.8l0.3,4.6l0.6,2.6h1l1.7,1.8
	l3.2,2.5l0.6,2.7l-0.8,0.9l-5.1,1l-1,1.2l1.3,0.7l1.8,3.5l0,2.9l-0.7,1.1l2.4,0.8l-0.3,2.2l-2,1.8l2,0.7l2.6-0.9l4.4,0.8l0.4,1.4
	l2.2,0.5l4.4-1.8l2,0l0.8,0.9l0.6,3l1,1.7h3.6l-1.4,1.5l0.4,1.8l1,0.7l0.9,3.9l1.3,1.1l0.7,3l-1.8,1.6l1.6,4.7l1.6,0.5l1.1,2.7
	l2.6,1l-0.3,0.7l-3.8,0.3l-2-0.4l-0.4,1.4l-1.1-0.4l-1.5,2l-2.5,0l-2.5,2.5l-0.8-0.7l-1.5,1.6l-2-0.4l-2.3,0.4l-0.7,1.2l-2.8-0.2
	l-1.3,0.6l-0.4-1.3l1-0.9l-1.7-3.1l-0.9,0.3l-0.1-2.6l-2.6-3l-0.3-3.3l-0.7-0.2l-3.4,2.4l-2.9-1.9l-2.2,1l0.7,0.6l-2.5,0.7l-1.6-0.7
	l-6.4-1.3l-1.2-0.7l-1.6,0.9l-3-0.7l0.8-4l1.3-3.1l-0.8-0.8l0.5-3.4l0.7-0.8l-0.5-2.8l1.1-2l-2.6,0.5l-1.3-1.4l-1.6-0.6l0.5-2.9
	l1.1-0.3l1-1.9l-0.4-3l-1-1.2l2.3,0.2l0.2-4.5l1.3-0.3l-1-4.4l0.3-1.5l-1.4-1.6l-0.5-1.7l2-3.7l1.3-0.1l2.9-1.3l-0.3-1.5l0.7-2.2
	l1.6,0.3l-0.3-1.3l-2.5-2.1l-0.2-1.9l0.8-1.3L340.2,0.8z"/>
<path vector-effect="non-scaling-stroke" d="M413.4,121.4l1.4,0.9l-0.8,1.1l0.9,1l0.5-1.5l1.6-0.1l0.2,1.3l-1.6,4.2l0.5,3.3l1.8,0.5
	l0.7,3l-1.2,1.2l0.6,3.3l-1.3,1.3l-3.7-1.7l-1.7,0.4l-0.1,3.6l1.3,1.6l-2.2,0.7l1,2l-5.9,1.3l-2.1-0.5l-0.3-1l-2.1,1l0.1-3.5
	l-1.3-0.3l-0.9-1.9l-1.2-0.7l-0.7-2l-2.9,0.9l-3-1.9l-2.8,1.5l-4.6-0.5l-2.1-0.8l-4.8,0.5l-1.8,1.3l-2.3-1.1l-0.5,3.5l2.3,2.2
	l-2.1,1.2v1.3l1.9,1.3l-0.3,2.2l1.3,0.7l-0.9,4.9l0.4,2l-1.8,0.2l-5.6-1.3l-3,1.5l-5.4,1.6l-3.3,0l-3.5-1.1l-5.5,1l-1.6-0.9l-0.5-2
	l-1.9,1.5l-3.2,1.2l-0.9-1.3l-4.6-1.6l-1.9-0.3l0.2-2.4l-0.7-1.6l2.2-0.6l-0.5-1.5l0.5-3.8l-1.1-1.1l0.1-1.3l0.5-2l2-1.8l1.6-0.3
	l0.3-2.6l0.8,2.1l1.8-2.5l0.9,0.4l2.6-2.3l-0.7-6.6l-0.8-2.8l5.9-3l2.1-1.7l-1.4-0.9l-3.3-0.7l-1-1.7l2.2-1.1l2.5,0l1.2,1.4l2-3.5
	l2.6,1.9l2.7,0.7l1.7,1.2l1.2-1.3l0.4-1.8l-0.9-1.6l0.5-2.5l2.7-3.7l3.9-1.8l2.5-0.7l1.2-1l3-0.4l1.3,0.6l3.6,0.3l4.7,4.2l2.1,1.4
	h2.8l4.3,1.2l3.1-1.5l2.1,2.4l-1.2,1.4l2.4,0.9l2.2,2.3l-0.8,1.2l3.1,2.4l0.8,2.4l-0.6,1.2l1.5,0.2l2.3-3.7l2.7,1L413.4,121.4z"/>
<path vector-effect="non-scaling-stroke" class="st0" d="M436.6,100.1l-1.6,1l-2.8-0.6l-2.1,0.1l-0.9,1.4l1.8,0.2l0.4,1l-4.7,3.3
	l-1.6,2.5l0.6,1.7l-2,1.1l-0.7,2.2l-1.7-0.2l-2.2,1.6l0.4,1.1l-2.5-1.2l-1.6,0.9h-3l1,5l-3.2,0.9l-2.7-1l-2.3,3.7l-1.5-0.2l0.6-1.2
	l-0.8-2.4l-3.1-2.4l0.8-1.2l-2.2-2.3l-2.4-0.9l1.2-1.4l-2.1-2.4l-3.1,1.5l-4.3-1.2h-2.8l-2.1-1.4l-4.7-4.2l-3.6-0.3l-0.7-2.5
	l1.4-2.6l3.5,0.7l1.6-0.7l2-2.7l-1.1-2.5l3.3-1.2l-1.6-1.3l1.7-0.7l-1.3-2.5l0-1.6l-1.3,0.6l-2.6-1.1l-1.1-2.3l0-1.9l-1.9-0.5
	l-2-1.3l-2.6-0.9l-1-2.7l1.4-1.8l-0.2-3l1.5-1.6l0.8,0.7l2.5-2.5l2.5,0l1.5-2l1.1,0.4l0.4-1.4l2,0.4l3.8-0.3l0.3-0.7l3-2.7l5.6-0.1
	l1.4,1.2l2.2,3.3l2.5-0.9l3.2,1.2l-0.1,1.3l1.4,0.8l1.8-2l4.8-2.8l2.9,0l3-1.1l1.8-1.8l3.1-0.5l1.1,2.7l2.6,1.5l-0.1,2.5l3.2,4.3
	l4.2,2.2l2.5,2.9l1.3,1.9l-1.5,0.8l0.9,1.1l-1.8,2.6l1.1,0.1l0.1,1.7l-1.1,2.1l0.6,2.5l-1.9,3.5l0.7,3.4l0.9,0.9L436.6,100.1z"/>
<path vector-effect="non-scaling-stroke" d="M333.4,60.4l3,0.7l1.6-0.9l1.2,0.7l6.4,1.3l1.6,0.7l2.5-0.7l-0.7-0.6l2.2-1l2.9,1.9
	l3.4-2.4l0.7,0.2l0.3,3.3l2.6,3l0.1,2.6l0.9-0.3l1.7,3.1l-1,0.9l0.4,1.3l1.3-0.6l2.8,0.2l0.7-1.2l2.3-0.4l2,0.4l0.2,3l-1.4,1.8
	l1,2.7l2.6,0.9l2,1.3l1.9,0.5l0,1.9l1.1,2.3l2.6,1.1l1.3-0.6l0,1.6l1.3,2.5l-1.7,0.7l1.6,1.3l-3.3,1.2l1.1,2.5l-2,2.7l-1.6,0.7
	l-3.5-0.7l-1.4,2.6l0.7,2.5l-1.3-0.6l-3,0.4l-1.2,1l-2.5,0.7l-3.9,1.8l-2.7,3.7l-0.5,2.5l0.9,1.6l-0.4,1.8l-1.2,1.3l-1.7-1.2
	l-2.7-0.7l-2.6-1.9l-3.1-1.8l-1.8,0.6l-0.4,1.2l-1.7-1.7l-1.2,0.7l-1.9-1.3l-1.8,0l-1.7-1.8l1-1.2l-1-1.1l-2-0.2l-1.3-2l-2.2-1.7
	l-5.4-2.6v-2.4l-2.4-4.9l1.7-2.1l-0.2-1.8l-1.1-2.3l-2.3-0.9l-0.3-1.9l-3-1.7l-1.3-2.5l1-0.5l0-2.5l-1.7-2.5l-1.6-0.4l-0.7-2.8
	l-3.2-3l0.5-1.6l1-2.1l1.8,0.2l1.4-1.5l1.8-0.7l2.3,0.3l0.4,1l4.7,0.4l3.3-1.4l2.6-2.6L333.4,60.4z"/>
<path vector-effect="non-scaling-stroke" d="M411.4,147.3l0.3,1.7h1.4l2.7,6.1l0.9-0.4l2.2,1.8l2.1-0.1l3.4,3.2l2-0.3l-1.1,3.7
	l-1.4-0.5l-0.5,2.1l-3,0l0.3,2.9l-1.7,1.2l2.4,1.4l1.1,2.2l2.5,1.1v2.1l-1.2,0.2l-1.1,1.6l0.7,1.2l-3.3,2.5l-2,4.5l0.2-1.8l-2.5-1.7
	l-3.9,0.9l-3.4,1.8l-1.4,1.7l-0.5,1.7l-2.1-2l-2.9,0.1l-3.6,0.7L395,189l-3.1,3.5l-2.6,1.4l-2.9,3l-2.2,3.8l-0.3-0.1l0,0l1.7-2.5
	l-1.7-0.4l0.3-2.9l-2.7-1.8l1.1,2.6l-2.4,3.9l-1-0.4l-0.7-4.9l-2.6-1.4l-1.6,0l0-1.4l-2.2-0.3l-0.9-1.7l0.2-2l-2.4-1l1.3-1l2.4-3.6
	l-1.8-3.2l-2.6-1.2l-0.9-1.3l-0.7-3.1l-0.7-0.4l-0.9-5.1l0.4-1.6l-1.5,0.2l-0.8,1.3l-2.1,0.1l-2.2-6.8l5.4-1.6l3-1.5l5.6,1.3
	l1.8-0.2l-0.4-2l0.9-4.9l-1.3-0.7l0.3-2.2l-1.9-1.3v-1.3l2.1-1.2l-2.3-2.2l0.5-3.5l2.3,1.1l1.8-1.3l4.8-0.5l2.1,0.8l4.6,0.5l2.8-1.5
	l3,1.9l2.9-0.9l0.7,2l1.2,0.7l0.9,1.9l1.3,0.3l-0.1,3.5l2.1-1l0.3,1l2.1,0.5L411.4,147.3z"/>
<path vector-effect="non-scaling-stroke" d="M349.3,262.6l-2-0.9l-1.6-2.4l-1.4,0.2l-3.3-2.4l1.3-1.4l3.2-0.5l-1.4-0.9l0.8-2
	l-0.7-2.5l1.2-2.2l0.3,1.1l2.2,0.9l0.4,1.3l-1.8,1.1l0.3,2l2-0.2l1,1.4l-0.9,1.4l2.2,1.7l1.1,3.1L349.3,262.6z"/>
<path vector-effect="non-scaling-stroke" d="M378.2,218.2l1,1.9l6.9,9.7l3.5,2.3l5-1.2l3.6-4.7l0.4,2.1l2.7,1.3l3.4-3.4l4.7,0
	l1.7,0.6l1.8-0.3l1,1l1.2-0.7l1.4,2.5l-3.1,0.3l-1.8,3.9l0.1,3.3l0.7,2l-3.8,0.9l-1.2,1.3l-4.2-1.2l-1.2,1.7l-3.4,0.3l-1.9-2.4
	l-3.3-1.5l-3.8,0.6l-1.6,2.2l0.9,0.8l-4.2,1.8l-0.9,1.5l-1.4,0.5l-1.6,3.6l-1.8-1.3l-2.3,0.5l-3.5,0.1l-3.4,1.9l-3.4,1.2l-2,3.3
	l-1.3,2.9l-1.1-0.1l-3,3.2l-4.4,2.3l-2.5-0.6l-2.9,0.1l2.9-1.2l-1.1-3.1l-2.2-1.7l0.9-1.4l-1-1.4l-2,0.2l-0.3-2l1.8-1.1l-0.4-1.3
	l-2.2-0.9l-0.3-1.1l1.2-2.6l-1.4-5.3l-3.5-3l-3.6,0.9l-2-1.3l-2.2-2.5l-4.2-2.7l-3.5-0.3l-2,1.4l-3.5-0.7l-0.7-2.3l1-1.6l2.7-2.1
	l2.6-1.4l1.6,0.1l0.9-2.2l1.6-1.1l5.2-2.4l0.1-1.6l1.4,1.1l3.3-1.5l2.5-1.9l1.7,0.2l1.5-1.2l1.7,0.7l0-1.8l1.9-0.5l-3-1.6l-0.5-4.8
	l1-1.6l-0.1-1.4l1.4,2.3l1.3,0.8l0.4-1.8l1.1,0.6l-0.3,1.4l1.1,1.6l2.2,1.6l0.2-2l1-0.4l3,2.9l-1.3,0.5l1,1.6l1-0.4l-0.3-2l-1.5-1.6
	l2.5,0.9l1.1-0.6l0.7,1.6l0.9-1l1.4,2.3l-0.7,1l0.9,1.7l0.2-1.5l1.4,1.4l2-2.1l1.2-0.3l-0.5,2.2l-1.2,0.7l-1.9,3l2-0.7l2.3-2.2
	l2.4-1.5l0,1.4l-1.7,0.6l-0.5,1.8l1.8-0.9l0.9,0.9l-1.1,2l3.6-0.3l-0.8,0.9l1.4,1.1l1.5,0l2.4,3.5l0.6,3.4l-1.8,1l1,1.8l1.7,1.4
	l1.7-0.2l3.7,1.6l1.3,1.1l1.1-1l-2.7-1.9l-8.1-10.8l-0.6-1.4L378.2,218.2z"/>
<path vector-effect="non-scaling-stroke" d="M281.5,36.3l0.6-2l1.2-1l-0.3-4.1l-1.6-3.1l-0.4-1.7l0.9-0.7l0.4-2.5l0.9-0.1l1.3-2.9
	l-0.1-0.9l1.9-2.6l1.3-0.6l2-2.6l1.2-2.5l3.5,0l2.4,1.1l1.1-1.7l3.5-0.6l3.5,0.8l3.6-0.2l1.1,0.6l0.2,1.7l2.5-0.4l1.6,0.3l2.8-1.3
	l1.5-2l0.5-2.6l0.8-0.9L319,1.5l3.5,0.2l4,2.1l2.4-0.3l1.7,0.5l2.1-1.8l0.8,0L336,0l4.1,0.8L339.3,4l-0.8,1.3l0.2,1.9l2.5,2.1
	l0.3,1.3l-1.6-0.3l-0.7,2.2l0.3,1.5l-2.9,1.3l-1.3,0.1l-2,3.7l0.5,1.7l1.4,1.6l-0.3,1.5l1,4.4l-1.3,0.3l-0.2,4.5l-2.3-0.2l1,1.2
	l0.4,3l-1,1.9l-1.1,0.3l-0.5,2.9l1.6,0.6l1.3,1.4l2.6-0.5l-1.1,2l0.5,2.8l-0.7,0.8l-0.5,3.4l0.8,0.8l-1.3,3.1l-0.8,4l-1.1,1.9
	l-2.6,2.6l-3.3,1.4l-4.7-0.4l-0.4-1l-2.3-0.3l-1.8,0.7l-1.4,1.5l-1.8-0.2l-1.5-1.1l0.3-0.9l-1.5-0.6l-0.8-1.7l1.2-0.8l-0.2-1.4
	l-1.3-0.1l-2.4-2.5l-1.1,0.4l-1,1.9l-2.7,1.1l-3.3,0.5l-3.9-0.8l-0.3-1.2l-1.6-1l0.9-1.5l-1.3-2.7l-1.5-1.8l-5,0.9l-2.2-0.8l1-2.7
	l-2.6-1.7l0.3-2.4l-0.8-1.2l-2.1-0.3l-0.3-1.3l0.6-4.1l-0.3-1.7L281.5,36.3z"/>
<path vector-effect="non-scaling-stroke" d="M222.3,25l-1.7,0.5l-0.3,2.6l-1.6-1.7l-0.8,4.1l-1.2,0.2l0.4,2.6l-2.1,2.7l-1.6,3.1
	l-2.1,1.6L212,44l-0.5,3.1l0.8,2l-2,3.8l0.8,1.2l-1,1.3l-1.3-1.4l-3.3,1.8l-1.4-0.5l-3.6,1.8l-2.6,3.5l-3.9,3.2l-1.4-0.1l-2.2,2.2
	l-1.6,0.7l-0.5-2l0.6-1.7l-1.2,0.5l-2.2-0.9l-2.4-0.2l-3.2,2.5l-2.5,0l-2.9,0.8l-2.2-1l0.1,2l-2.4,2.8l-3.2-3l-0.3-4.2l0.8-2.2
	l-2.7-0.5l3-2.2l-1.8-3.4l1.7-0.9l-0.4-1.8l2.7,0.7l0.8-0.5l0-1.9l1.5,0.4l0.1-2.3l1.6,0.9l3.6-1.4l1.4,0.3l0.8,1.4l2.4,1.2l0.8-1.8
	l0.3-2.9l1.8-1.3l1.5-2.1l-0.3-2.1l2.1-0.4l0.1-0.9l-1.2-2.4l-1.6-0.2l0.2-1.3l1.6-0.2l0.8-1.9l-2.5-2.1l-2.2-3.3l0.4-1.7l-1.8-0.3
	l-1,0.8l-2.8-0.1l0.6-5.8l1.1-1.4l-1.7-1.3l0.6-3.6l2.4-2.4l0.8-2.9L180.2,7l4.5,0.2l6.3,1.5l1.8,1.6l4.7,0.7l0.6,1.6l4.5,0.5l3.7,2
	l1.3,0.4l2.1-0.6l3.1,0.9l0.3,3l1.5,0.3l-0.6,1.8l2.7,0.4l1.9-0.9l4,1.3l0.5,0.9L222.3,25z"/>
<path vector-effect="non-scaling-stroke" d="M211.7,124.1l-2,1.7L208,125l-2.2,1.9l-1.6,0.3l-3.2-1.4l0.1,1.2l-2,0.1l-2.1-1.6
	l-1.5,0.8v2.4l-2.2-1.4l-1.6,2.2l-7.1,1l-0.6,2.8l-2.9,4.1l-1.1,0.4l-4.6-0.1l-3.8,0.8l-11,0.1l-1,0.6l-2.5,3.3l-2.5,1.3l-2,0.1
	l1.6-3.6l-0.6-4.1l0.2-2.2l1.5-2.7l3.5-2.3l0.1-1.6l1.4-0.8l2.4-2.5l3.6-1.6l3,0.5l0.9-4.6l-0.6-3l1.7-1.7l2.4,1.8l1-1.2l2.3,2.9
	l1.7-1h1.7l-0.4,1.8l2,1.2l5,1.2l2-0.5l1.9,2.8l1-1.1l2.2,0l-2-1.6l0.5-0.7l1.9,1l0.5-1.7l2-0.3l-0.1,1.3l1.2,0.7l1.4-1.2l3.6,1
	l0.8-0.7l2.2,0.5l-0.2-1.6l1.9,0.7l1.1-0.9l1.4,1L211.7,124.1z"/>
<path vector-effect="non-scaling-stroke" d="M171.4,113.9l-1.7,1.7l0.6,3l-0.9,4.6l-3-0.5l-3.6,1.6l-2.4,2.5l-1.4,0.8l-0.1,1.6
	l-3.5,2.3l-1.5,2.7l-0.2,2.2l0.6,4.1l-1.6,3.6l-1.1-0.3l-1.6-3l-2.7-2l-0.1-1.4l-1.6-1.6l1.9-3.4l-1.9-3.1l0.4-2.6l-0.8-1.9
	l-3.7-4.5l-1.2,1l-2.4-1l0.4-5l-5.2,0.8V114l-2.3-2.1l0.1-1.2l-2.2-0.8l-1.1-1.8l-1.7-0.9l1.4-3.5l-0.4-1.6l1.1-3.1l1.4-0.9l1.2-2.3
	l1.7-0.8l3.2,0.7l3.7-0.8l1.9,0.5l6.3-1.2l-0.4-1.4l-1.2-0.2v-2.2l1.8-2.2l-0.8-0.7l1.9-3.9l2.6,0l2.8,1.4l2.1,5.3l-0.2,2.4l0.7,2.2
	l-0.8,0.9l0.2,2l2.1,0.2l0.3,1.9l-2-0.3l1.4,2.9l1.9,0.4l1.3,1l-0.2,1.5l2.6-0.8l-0.7,2.9l2.2,0.3l-1.8,0.6l-0.1,1.4l2.4-2.2
	l1.7,0.2l1.5,1.6l2.5,1.7L171.4,113.9z"/>
<path vector-effect="non-scaling-stroke" d="M209.1,118.7l-1.1,0.9l-1.9-0.7l0.2,1.6l-2.2-0.5l-0.8,0.7l-3.6-1l-1.4,1.2l-1.2-0.7
	l0.1-1.3l-2,0.3l-0.5,1.7l-1.9-1l-0.5,0.7l2,1.6l-2.2,0l-1,1.1l-1.9-2.8l-2,0.5l-0.1-2l-1.3-1.1l0.3-1.2l-1.6-1.5l0.9-4.2l-0.9-1.2
	l0.4-1.6l-0.6-1.9l0.8-1.5l-0.4-1.4l0.8-1.2l-0.4-3.2l1.1-2.1l0.2-5.2l-0.6-0.7l-0.8-3.4l1.4-1.6l1.2-3l-0.9-1.7l0.8-2l-0.9-1.7
	l-0.3-4.5l1.9-1.5l-0.8-0.7l0.5-2.1l1.4-0.8l-0.7-1.2l1.6-0.7l2.2-2.2l1.4,0.1l3.9-3.2l2.6-3.5l3.6-1.8l1.4,0.5l3.3-1.8l1.3,1.4
	l2.2,2.3l-1.8,2.6l3.4,3.5l1.6,2.6l2.6-0.7l0.6,2.7l-0.7,2.9l0.8,1.6l-2.5,0.7l0.5,2l-0.9,1l1,0.6l1.3,3.4l4.3,1.6l-2.7,2.7l1.2,0.9
	l-1.9,3.9l0.5,2l-0.5,0.9l1.8,0.5l-0.5,1.4l1.2,3.7l-0.5,0.9l0.5,2.9l-2.7,1.3l-3.1-1.7l-1.1,1.2l-1.4-0.3l-2.5,3.3l-0.8,2.8
	l0.8,5.3l-0.7,0.5L209.1,118.7z"/>
<path vector-effect="non-scaling-stroke" d="M164.6,59.4l2.7,0.5l-0.8,2.2l0.3,4.2l3.2,3l1.1,2.1l-0.9,2.1l-3.5,1.4l-3.1,0.3
	l-0.1,2.5l-1.8,0.5l-2,2.9l-5,1.8l-0.7,2l-2.8-1.4l-2.6,0l-1.9,3.9l0.8,0.7l-1.8,2.2v2.2l1.2,0.2l0.4,1.4l-6.3,1.2l-1.9-0.5
	l-3.7,0.8l-3.2-0.7l-1.7,0.8l-1.2,2.3l-1.4,0.9l-1.1,3.1l0.4,1.6l-1.4,3.5l-4.8-1.5l-2.6-1.7l-1.3-2.9l-2.1,0.3l-2.2-3l0.5-1.8
	l-0.7-0.8l0-2.4l-2.8-3.2l-0.6,0.2l1.7-3.6l0.1-3l-0.7-1.8l-0.4-3.7l3.6-4.6l1.1-0.4l7-7.8l8.1-6.8l3-1.8l2.2-2l0.7-1.3l1.4-0.5
	l3.8,0.4l1.2-0.3l0.9-2.8l2.2-1.3l0.4-2.9l1.2-0.2l1.5,2.1l2.8-0.3l0.9,1.8l1.4,0.3l0.7,1.2l-1.9,1.4l0.8,1.8l1.1-0.8l4.3,3.7
	l2.9,0.1l0.5-0.7l2.6,1.4L164.6,59.4z"/>
<path vector-effect="non-scaling-stroke" d="M171.4,113.9l0.1-2.7l-2.5-1.7l-1.5-1.6l-1.7-0.2l-2.4,2.2l0.1-1.4l1.8-0.6l-2.2-0.3
	l0.7-2.9l-2.6,0.8l0.2-1.5l-1.3-1l-1.9-0.4l-1.4-2.9l2,0.3l-0.3-1.9l-2.1-0.2l-0.2-2l0.8-0.9l-0.7-2.2l0.2-2.4l-2.1-5.3l0.7-2l5-1.8
	l2-2.9l1.8-0.5l0.1-2.5l3.1-0.3l3.5-1.4l0.9-2.1l-1.1-2.1l2.4-2.8l-0.1-2l2.2,1l2.9-0.8l2.5,0l3.2-2.5l2.4,0.2l2.2,0.9l1.2-0.5
	l-0.6,1.7l0.5,2l0.7,1.2l-1.4,0.8l-0.5,2.1l0.8,0.7l-1.9,1.5l0.3,4.5l0.9,1.7l-0.8,2l0.9,1.7l-1.2,3l-1.4,1.6l0.8,3.4l0.6,0.7
	l-0.2,5.2l-1.1,2.1l0.4,3.2l-0.8,1.2l0.4,1.4l-0.8,1.5l0.6,1.9l-0.4,1.6l0.9,1.2l-0.9,4.2l1.6,1.5l-0.3,1.2l1.3,1.1l0.1,2l-5-1.2
	l-2-1.2l0.4-1.8h-1.7l-1.7,1l-2.3-2.9l-1,1.2L171.4,113.9z"/>
<path vector-effect="non-scaling-stroke" d="M125.8,107.3l1.7,0.9l1.1,1.8l2.2,0.8l-0.1,1.2l2.3,2.1v2.2l5.2-0.8l-0.4,5l2.4,1l1.2-1
	l3.7,4.5l0.8,1.9l-0.4,2.6l1.9,3.1l-1.9,3.4l-3.1-0.8l-4.6,1.3l-5.4-2.8l-2.3,0.7l-2-2l-4.7-1.2l-2,0.9l-2.6-1l-2.5-3.2l-2.4-0.7
	l-1.6,2.6l-1,0.6l-1.7-0.9l-1.6,1.7l-0.8-1.2l0.9-1.5l-0.5-1.6L106,125l-3.3,0.1l-0.6-2.6l-1.3-2.4l-2.7-0.4l-0.8-1.8l-0.3-3.7
	l-3-0.5l0.8-4.7l0.5-1.1l4.2-3.3l1.4-3l0.1-1.6l1.3-1.3l1.2-2.6l1.7-0.5l0.8-2.6l0.9-0.2l1.2,1.4l2.5,0.3l1.9,2l0.3-0.6l0.7,0.8
	l-0.5,1.8l2.2,3l2.1-0.3l1.3,2.9l2.6,1.7L125.8,107.3z"/>
<path vector-effect="non-scaling-stroke" d="M164.6,59.4l0.1-1.3l-2.6-1.4l-0.5,0.7l-2.9-0.1l-4.3-3.7l-1.1,0.8l-0.8-1.8l1.9-1.4
	l-0.7-1.2l-1.4-0.3l-0.9-1.8l-2.8,0.3l-1.5-2.1l-1.2,0.2l-0.3-2.8l-2-2.4l0.1-1.6l3.4,0l0.1-1l-2.9-2.6l-1.1-2.5l-0.3-4.3l-2.4-3
	l-1.7-4.3l1.6-2l-1.3-3.3l0.4-1.4l-0.4-2.2L140,12l2.5-0.2l2.6,1.2l1.8,1.3l3.4-2.4l2.5-1.3l1.4-2.8l2.2-2.1l5.1,0.2l1.6,0.5
	l5.8-0.3l3.8-0.9l3.3,1.3l3.9,0.5l2.1,1.1l-0.8,2.9l-2.4,2.4l-0.6,3.6l1.7,1.3l-1.1,1.4l-0.6,5.8l2.8,0.1l1-0.8l1.8,0.3l-0.4,1.7
	l2.2,3.3l2.5,2.1l-0.8,1.9l-1.6,0.2l-0.2,1.3l1.6,0.2l1.2,2.4l-0.1,0.9l-2.1,0.4l0.3,2.1l-1.5,2.1l-1.8,1.3l-0.3,2.9l-0.8,1.8
	l-2.4-1.2l-0.8-1.4l-1.4-0.3l-3.6,1.4l-1.6-0.9l-0.1,2.3l-1.5-0.4l0,1.9l-0.8,0.5l-2.7-0.7l0.4,1.8l-1.7,0.9l1.8,3.4L164.6,59.4z"/>
<path vector-effect="non-scaling-stroke" d="M312.4,70.1l3.2,3l0.7,2.8l1.6,0.4l1.7,2.5l0,2.5l-1,0.5l1.3,2.5l3,1.7l0.3,1.9l2.3,0.9
	l1.1,2.3l0.2,1.8l-1.7,2.1l2.4,4.9v2.4l-0.8,2.4l0.8,1.4l0.3,2.4l0.9,2.4l-1.4,1.2l-2.1-0.8l-1.1,1.3l-2.6,0.5l-1.3-4.1l-2,0.1
	l-0.7-1.3l-2,1.2l-2,2.4l-0.4,2.1l-2.2-0.4l-3,2.1l-1.8-2.1l-2.6-0.7l-0.8,0.9l-2.3-0.3l-0.4,2.9l-1.4,2.4l-2.9,1.2l-0.5-0.7
	l-2.8-0.3l-2.7,0.7l-2.5-1l-2.7,0.1L282,118l-2,1.4l-0.4,1.9l-1.4,1.4l0.7,1.8l-2,0.3l-1.5-0.7l-0.7,1.3l-2.9,1.4l-1.7-0.2l-2.2,1
	l-2.5-0.8l1.4-2l-1.2-3.8l-2.1-1.6l0.7-1.2l-2.5-1.2l-1.1-5l-1.6-1.1l0.9-1.2l-1.6-1.3l2.5-3.4V102l1.7,1.9l2-0.2l1.2-2.2l2.6-1.2
	l1.6,0.4l0.8-1.7l0.5,1.6l3.8,0.9l0.9,0.7l0.9-3.5l1.4,0.7l2-0.1l0.7-0.9l2.4,1.3l3-1.2L287,99l0.9-2.1l2.9-2.6l1.7-2.1l-0.5-2
	l1-1.7l0.6-2.8l-0.3-2.2l0.7-1.2l2.7-1.3l2-0.3l0.9,1.7l2-0.2l2.9,0.6l2.2-3.7V78l1.5-1l-0.5-2.1l1.4-1.7l1.7-1l0.2-2.3L312.4,70.1z
	"/>
<path vector-effect="non-scaling-stroke" d="M268,127.8l2.2-1l1.7,0.2l2.9-1.4l0.7-1.3l1.5,0.7l2-0.3l-0.7-1.8l1.4-1.4l0.4-1.9
	l2-1.4l2.4,0.5l2.7-0.1l2.5,1l2.7-0.7l2.8,0.3l0.5,0.7l2.9-1.2l1.4-2.4l0.4-2.9l2.3,0.3l0.8-0.9l2.6,0.7l1.8,2.1l3-2.1l2.2,0.4
	l0.4-2.1l2-2.4l2-1.2l0.7,1.3l2-0.1l1.3,4.1l2.6-0.5l1.1-1.3l2.1,0.8l1.4-1.2l-0.9-2.4l-0.3-2.4l-0.8-1.4l0.8-2.4l5.4,2.6l2.2,1.7
	l1.3,2l2,0.2l1,1.1l-1,1.2l1.7,1.8l1.8,0l1.9,1.3l1.2-0.7l1.7,1.7l0.4-1.2l1.8-0.6l3.1,1.8l-2,3.5l-1.2-1.4l-2.5,0l-2.2,1.1l1,1.7
	l3.3,0.7l1.4,0.9l-2.1,1.7l-5.9,3l0.8,2.8l0.7,6.6l-2.6,2.3l-0.9-0.4l-1.8,2.5l-0.8-2.1L337,141l-1.6,0.3l-2,1.8l-0.5,2l-1.2-2.5
	l-2.1,0.5l-1.5,2.1l-0.9-0.8l-2.1,1.1l0.7,1.4l-1.2,0.5l0.4,1.8l-0.9,1.4l-3.8,0.6l-3.7-1.3l-1.4,0l-2.1,2.4l-2.6-2.1l-3.4,0.4
	l-0.6-1.7l0.6-1.1l-1-2.1l-0.9,0l-1.5-2.4l1.3-1l-0.2-1.5l-3.1-0.9l-2.6,1.7v-1.7l-1.9,0.3l-3.6-0.5l-1.4-2.9l-3.9-0.2l-2.1,1.7
	l-1.6-0.8l-3-0.1l-1.7,1.1l-2.7-0.7l-3.4-0.1l-1.2,0.9l-4.6-0.4l-1.8-2.6l-1.6-0.1l-0.8,1.2l-2.5-0.7l0.3-1.6l-1-0.7l1-2.5l1.9-2.2
	l1.2-0.4l0.5,1.9L268,127.8z"/>
<path vector-effect="non-scaling-stroke" d="M272.4,138.5l1.2-0.9l3.4,0.1l2.7,0.7l1.7-1.1l3,0.1l1.6,0.8l2.1-1.7l3.9,0.2l1.4,2.9
	l3.6,0.5l1.9-0.3v1.7l2.6-1.7l3.1,0.9l0.2,1.5l-1.3,1l1.5,2.4l0.9,0l1,2.1l-0.6,1.1l0.6,1.7l3.4-0.4l2.6,2.1l2.1-2.4l1.4,0l3.7,1.3
	l3.8-0.6l0.9-1.4l-0.4-1.8l1.2-0.5l-0.7-1.4l2.1-1.1l0.9,0.8l1.5-2.1l2.1-0.5l1.2,2.5l-0.1,1.3l1.1,1.1l-0.5,3.8l0.5,1.5l-2.2,0.6
	l0.7,1.6l-0.2,2.4l1.9,0.3l0.6,1.7l0.2,3.8l-1.3-1.1l-0.9,1.3l1.6,0.9l0.6,1.8l-0.4,1.8l0.7,1.4l-2,1.6l-1.6-0.1l-1.4,2.7l0.2,0.9
	l3.1,2l-0.8,1.5l-1.1-1l-0.5,1.4l1.4,0.5l-4.7,2.1l3,0.4l-2.7,1.2h-2.7l-0.6-0.7l-3.1-0.8l-0.1,1l-3.3,0l-0.7,1.2l-3.1-0.1l-1.2,1.9
	l-2.2,0l-2.5,0.8l-0.6-2.6l1.6-3.1l-0.1-1.5l-1.3-0.9l0.9-1.4l-2.1-0.2l0.1-3.4l-1.4-2.6l-0.1,2.5l1.3,1l-0.9,2.8l2.5,0.3l-1.1,1.8
	l1.6,0.3l-0.5,2.6l-1.1,0.5l-0.8,2.1l0.9,1.4v2.5l-1.1,1.1h-2l-2.2-0.9l-2.2,1.2l-2.2-1l3.2-5.5l-2.3,2.1l-1.7-1.8l1.4,2.7l-1.8,2.7
	l-2.1,1.2l-3.4-1l-0.4-6.5l-2.4-2.4l-0.4-1.9l4-0.6l1.1-0.9l1-3.3l-1.8-2.2l-2.4-0.6l1.3-1.9l-0.5-1.1l-2.5,0.7l-2.8-0.9l-1.7-5.1
	l0.9-3.7l-1.7-1.4l-0.2-1.6l-2,1.4l-0.6-1.3l-1.7-0.4l-2.5,0.4l-1.2-0.9l-0.4-4.8l-1.6-1.5l-0.4-3.6l-1.7-1.8l0.2-2.5l2.1-0.9
	L272.4,138.5 M305.1,193.8l-2-0.6l-1.4,0.9l-3.1-3.1l1.3,0.7l4-0.2l2.2,1.1L305.1,193.8L305.1,193.8z"/>
<path vector-effect="non-scaling-stroke" d="M268,127.8l-3.1,2.5l-0.5-1.9l-1.2,0.4l-1.9,2.2l-1,2.5l1,0.7l-0.3,1.6l-2.5,1l0.2,2.5
	l-4-0.2l-1.3-0.7l-2.2,0.8l-2,0l-3.1-2.1l-1.4,0.4l0,1.5l-4.2,2.5l-1.2-3.8l-4.9-1.7l-1.2,0.1l-0.8,2.7l-2-3.5l-0.9,1.2l-0.5-1.1
	l1.2-2.2l-1.6-0.3l-2.1,0.7l-0.4-1.6l-2.2,0.3l0.5-1.3l-0.9-1.3l-2.8-0.8l-1.2-2.1l-2.4-1.9l-2.7-0.1l-0.4-1.1l-2.2,0.2l-1.2-4.4
	l-1.4-1l0.9-4.3l0.7-0.5l-0.8-5.3l0.8-2.8l2.5-3.3l1.4,0.3l1.1-1.2l3.1,1.7l2.7-1.3l-0.5-2.9l0.5-0.9l-1.2-3.7l0.5-1.4l-1.8-0.5
	l0.5-0.9l-0.5-2l1.9-3.9l-1.2-0.9l2.7-2.7l3.4,0.2l5.2-0.6l2.6,0.5l0.9-0.9l3,0.9l3-0.1l2.8-2.7l1.6,0.4l0.5,2.8l1.2,2l-1.1,1.3
	l0.8,3.4l5.7,0.4l3.9-2l1.4,0.7l-0.5,2l1.3,1.3l-0.5,1.3l0.3,2.7l-1.4,1.5l0.6,1.6l1.2,0.4l1.2,2.1l1,0.6v3.3l-2.5,3.4l1.6,1.3
	l-0.9,1.2l1.6,1.1l1.1,5l2.5,1.2l-0.7,1.2l2.1,1.6l1.2,3.8l-1.4,2L268,127.8z"/>
<path vector-effect="non-scaling-stroke" d="M465.9,143.5l-3.5,0.1l-1,0.5l-1.2,2.3l-0.5,3.5l-1.3-0.1l-2.4,2.1l-4.6,1l-1.2,1.6
	l-0.6,2.4l0.2,3.3l-1.1,2l0,1.4l2.1,0l-0.1,1.5l-1.7,1.7l0.5,2.9l-2.3,2.7l0.4-1.6l-1.4-0.7l-1,0.7l-3.8-0.4l-2.4,1l-3.9-0.3
	l-2.1,1.9l-3.1,5.2l-1.8-1.6l-4.9,2.1l-0.7-1.2l1.1-1.6l1.2-0.2v-2.1l-2.5-1.1l-1.1-2.2l-2.4-1.4l1.7-1.2l-0.3-2.9l3,0l0.5-2.1
	l1.4,0.5l1.1-3.7l-2,0.3l-3.4-3.2l-2.1,0.1l-2.2-1.8l-0.9,0.4l-2.7-6.1h-1.4l-0.3-1.7l-1-2l2.2-0.7l-1.3-1.6l0.1-3.6l1.7-0.4
	l3.7,1.7l1.3-1.3l-0.6-3.3l1.2-1.2l-0.7-3l-1.8-0.5l-0.5-3.3l1.6-4.2l-0.2-1.3l-1.6,0.1l-0.5,1.5l-0.9-1l0.8-1.1l-1.4-0.9l-1-5h3
	l1.6-0.9l2.5,1.2l-0.4-1.1l2.2-1.6l1.7,0.2l0.7-2.2l2-1.1l-0.6-1.7l1.6-2.5l4.7-3.3l-0.4-1l-1.8-0.2l0.9-1.4l2.1-0.1l2.8,0.6l1.6-1
	l2,0.9l-0.8,1.5l1.6,0.7l2.2-0.7l-0.5,2.6l0.9,2.1l-1.3,1.7l4.4,0.7l0.6,2.1l1,0.5l0.9,4l-1.1,1.9l0.7,4.2l1.1,0.5l-0.1,2l2.3,0.6
	l1.8,2.5l-1.3,1.1l1.1,1.8l2.2-0.4l1.8,3.6l4.2,1.5l-0.2,1.8l1.4,1.1l3.7,0.2l0.9,2.9L465.9,143.5z"/>
<path vector-effect="non-scaling-stroke" class="st1" d="M465.9,143.5l0.3-2l-0.9-2.9l-3.7-0.2l-1.4-1.1l0.2-1.8l-4.2-1.5l-1.8-3.6
	l-2.2,0.4l-1.1-1.8l1.3-1.1l-1.8-2.5l-2.3-0.6l0.1-2l-1.1-0.5l-0.7-4.2l1.1-1.9l-0.9-4l-1-0.5l-0.6-2.1l-4.4-0.7l1.3-1.7l-0.9-2.1
	l0.5-2.6l-2.2,0.7l-1.6-0.7l0.8-1.5l-2-0.9l1.6-1.8l-0.9-0.9l-0.7-3.4l1.9-3.5l-0.6-2.5l1.1-2.1l-0.1-1.7l-1.1-0.1l1.8-2.6l-0.9-1.1
	l1.5-0.8l-1.3-1.9l3-1.2l-0.1-3.9l2.7-0.2l1.1,2.2l3.4,1.2l3.5-0.8l0.6,1.6l3.6,1.3l2,1.9l2-0.3l1.6-2l1.4,0.1l1.4,3l2,1.1l2.4-1
	l2.5,0.7l1.7,3.5l4.1,2l2.4-0.9l1.2-1.4l3.1,0.1l0,1.5l-1.2,0.9l-0.1,2.1l2.9,3.8l-0.1,2.9l-3.7,4.4l-0.5,2.6l-5.1,1.4l0,1.7
	l2.1,2.3l3,0.3l1.3,0.8l1.2-1.3l1,0.5l-0.6,1.9l-1.8,1l-2.5-0.7l-2.4,2.5l-1.1,5.4l3.9-0.3l1.1,0.8l-0.1,1.9l2.2,3.9l-2.2,2.5
	l1.6,0.8l2.4,0l-0.6,1.7l-1.3,1.4l-0.9,2.2l0.3,2.7l-1.8,0.9l0.9,1.4l-0.4,4.6l-1.2,0.8l-2.3-0.4l-4.6,0.6l-1.7-0.6l-5,0.9
	L465.9,143.5z"/>
<g>
	<text class="st2 st3 st4">Kyiv</text>
</g>
<g class="st5">
	<text class="st6 st3 st4">Lygansk</text>
	<text transform="matrix(1 0 0 1 0 8)" class="st6 st3 st4">area</text>
</g>
<g>
	<text class="st2 st3 st4">Dnipro</text>
	<text transform="matrix(1 0 0 1 0 8)" class="st2 st3 st4">area</text>
</g>
<g>
	<text class="st2 st3 st4">Zaporizhzhia</text>
	<text transform="matrix(1 0 0 1 0 8)" class="st2 st3 st4">arae</text>
</g>
<g>
	<text class="st2 st3 st4">Krym</text>
</g>
<g>
	<text class="st2 st3 st4">Vinnitsa</text>
	<text transform="matrix(1 0 0 1 0 8)" class="st2 st3 st4">area</text>
</g>
<g>
	<text class="st7"><tspan x="0" y="0" class="st2 st3 st4">Ivano</tspan><tspan x="16.1" y="0" class="st2 st8 st4">-</tspan><tspan x="18.5" y="0" class="st2 st3 st4">Frankivsk</tspan></text>
	<text transform="matrix(1 0 0 1 0 8)" class="st2 st3 st4">area</text>
</g>
<g>
	<text class="st2 st3 st4">Lviv</text>
	<text transform="matrix(1 0 0 1 0 8)" class="st2 st3 st4">area</text>
</g>
<g class="st5">
	<text class="st6 st3 st4">Poltava</text>
	<text transform="matrix(1 0 0 1 0 8)" class="st6 st3 st4">area</text>
</g>
<g>
	<text class="st2 st3 st4">Odesa</text>
	<text transform="matrix(1 0 0 1 0 8)" class="st2 st3 st4">area</text>
</g>
<g>
	<text class="st2 st3 st4">Harkiv</text>
	<text transform="matrix(1 0 0 1 0 8)" class="st2 st3 st4">area</text>
</g>
<g>
	<text class="st2 st3 st4">Volyn</text>
	<text transform="matrix(1 0 0 1 0 8)" class="st2 st3 st4">area</text>
</g>
<g>
	<text class="st2 st3 st4">Zhytomyr</text>
	<text transform="matrix(1 0 0 1 0 8)" class="st2 st3 st4">area</text>
</g>
<g>
	<text class="st2 st3 st4">Cherkassy</text>
	<text transform="matrix(1 0 0 1 0 8)" class="st2 st3 st4">area</text>
</g>
<g>
	<text class="st2 st3 st4">Donetsk</text>
	<text transform="matrix(1 0 0 1 0 8)" class="st2 st3 st4">area</text>
</g>
<rect x="51.1" y="95.6" width="17" height="15.1"/>
<g>
	<rect x="48" y="96.5" class="st9" width="18.2" height="13.4"/>
	<g>
		<path class="st10" d="M59.6,96.5c-2.8,0-5,2.3-5,5c0,1.1,0.4,2.2,1,3l4,5.4l4-5.4c0.6-0.8,1-1.9,1-3
			C64.6,98.8,62.4,96.5,59.6,96.5z M59.6,104.9c-1.9,0-3.4-1.5-3.4-3.4c0-1.9,1.5-3.4,3.4-3.4c1.9,0,3.4,1.5,3.4,3.4
			C63,103.4,61.5,104.9,59.6,104.9z"/>
	</g>
</g>
<g>
	<g>
		<rect x="50.3" y="80.3" width="14.3" height="14"/>
	</g>
	<g>
		<path class="st10" d="M58.2,80.3c-2.8,0-5,2.3-5,5c0,1.1,0.4,2.2,1,3l4,5.4l4-5.4c0.6-0.8,1-1.9,1-3C63.3,82.6,61,80.3,58.2,80.3z
			 M58.2,88.7c-1.9,0-3.4-1.5-3.4-3.4c0-1.9,1.5-3.4,3.4-3.4c1.9,0,3.4,1.5,3.4,3.4C61.6,87.2,60.1,88.7,58.2,88.7z"/>
	</g>
</g>
<g>
	<rect x="90" y="140" class="st9" width="17" height="15"/>
	<g>
		<path class="st10" d="M98.5,140.8c-2.8,0-5,2.3-5,5c0,1.1,0.4,2.2,1,3l4,5.4l4-5.4c0.6-0.8,1-1.9,1-3
			C103.5,143,101.3,140.8,98.5,140.8z M98.5,149.2c-1.9,0-3.4-1.5-3.4-3.4c0-1.9,1.5-3.4,3.4-3.4c1.9,0,3.4,1.5,3.4,3.4
			C101.9,147.7,100.4,149.2,98.5,149.2z"/>
	</g>
</g>
</svg>
